<svg width="462" height="457" viewBox="0 0 462 457" fill="none" xmlns="http://www.w3.org/2000/svg">
<path d="M279.294 0.81579C334.52 12.604 383.494 44.2655 416.912 89.7864C450.331 135.307 465.866 191.517 460.568 247.738C455.27 303.96 429.507 356.277 388.172 394.754C346.838 433.23 292.812 455.185 236.355 456.448C179.899 457.712 124.945 438.195 81.9306 401.607C38.9166 365.018 10.8391 313.905 3.03114 257.977C-4.77681 202.049 8.22867 145.201 39.5773 98.2304C70.926 51.2601 118.434 17.4396 173.078 3.19268L180.456 31.4896C132.748 43.9281 91.2699 73.4557 63.9004 114.464C36.5309 155.472 25.1762 205.104 31.9931 253.934C38.81 302.763 63.3235 347.388 100.878 379.332C138.432 411.277 186.411 428.316 235.701 427.213C284.992 426.11 332.16 406.942 368.248 373.349C404.335 339.757 426.828 294.08 431.454 244.995C436.08 195.909 422.516 146.835 393.34 107.092C364.163 67.3489 321.406 39.7063 273.189 29.4144L279.294 0.81579Z" fill="#87A9F1"/>
</svg>
