<svg xmlns="http://www.w3.org/2000/svg" xmlns:xlink="http://www.w3.org/1999/xlink" viewBox="0 0 522.77 509.83"><defs><style>.cls-1{fill:#fff;}.cls-2{fill:#91a2a5;}.cls-3{fill:#ff4242;}.cls-4{fill:#fc9159;}.cls-5{fill:#ffcaca;}.cls-6{fill:#fff3e2;}.cls-7{mask:url(#mask);}.cls-8{fill:#b6f7ff;fill-opacity:0.67;stroke:#b6f7ff;stroke-width:6px;}.cls-9{fill:#8b12a9;}.cls-10{fill:#a22b99;}</style><mask id="mask" x="0" y="0" width="522.77" height="408.67" maskUnits="userSpaceOnUse"><g id="path-1-inside-1"><path class="cls-1" d="M52.41,395.63a9.71,9.71,0,0,1-13.66-3.11,258.38,258.38,0,1,1,439.86,8.77,9.7,9.7,0,0,1-13.77,2.57L320.26,302.62c-4.52-3.17-5.54-9.38-3.14-14.36A61.88,61.88,0,1,0,204.62,286c2.19,5.06.93,11.23-3.71,14.21Z"/></g></mask></defs><g id="Layer_2" data-name="Layer 2"><g id="Layer_1-2" data-name="Layer 1"><path class="cls-2" d="M261.38,14.83c-136.69,0-247.5,110.81-247.5,247.5s110.81,247.5,247.5,247.5S508.88,399,508.88,262.33,398.07,14.83,261.38,14.83Zm0,325.1a77.6,77.6,0,1,1,77.6-77.6A77.6,77.6,0,0,1,261.38,339.93Z"/><circle class="cls-3" cx="261.38" cy="450.33" r="41.67"/><path class="cls-4" d="M230.82,445.62a4.77,4.77,0,0,1-4-6.06,35,35,0,0,1,21.28-22,4.76,4.76,0,0,1,6.18,3.79c.58,2.9-1.34,5.66-4,6.85a24.29,24.29,0,0,0-12.71,13.14C236.43,444.09,233.74,446.1,230.82,445.62Z"/><rect class="cls-5" x="110.72" y="363.67" width="83.33" height="83.33" rx="25.83"/><path class="cls-6" d="M121.25,373.89c4.16-4.05,10.41-6,17.34-6.6,12.55-1.14,12.59,13.46.27,16.12l-.54.12a11.57,11.57,0,0,0-8.92,9.14c-2.21,11.65-15.82,11.85-15.06,0C114.82,385.11,116.76,378.26,121.25,373.89Z"/><g class="cls-7"><path class="cls-8" d="M52.41,395.63a9.71,9.71,0,0,1-13.66-3.11,258.38,258.38,0,1,1,439.86,8.77,9.7,9.7,0,0,1-13.77,2.57L320.26,302.62c-4.52-3.17-5.54-9.38-3.14-14.36A61.88,61.88,0,1,0,204.62,286c2.19,5.06.93,11.23-3.71,14.21Z"/></g><path class="cls-9" d="M405.27,442.89c0,2.71-2.65,6.79-9.8,9.41-9.44,4.14-26.3,3.53-42.27-2.13s-25-12.51-28.91-15.59c-10-9.53-10.82-16.56-9-20.9l65.4-53.24a4.7,4.7,0,0,1,7.56,2.68Z"/><path class="cls-10" d="M342.84,431.21c-1.32,2.12-3,1.93-6.16,1.36-5.54-1.8-10.3-5.14-12.09-9.33-1-3.07-1.48-4.89.32-6.61L380.11,364a2,2,0,0,1,3,2.48Z"/></g></g></svg>