<svg width="574" height="376" viewBox="0 0 574 376" fill="none" xmlns="http://www.w3.org/2000/svg">
<circle cx="340" cy="50" r="50" fill="#FF4242"/>
<path d="M304.887 44.1923C301.394 43.6146 298.985 40.2907 300.087 36.9265C302.058 30.9088 305.373 25.387 309.815 20.7963C314.256 16.2057 319.665 12.7092 325.615 10.5403C328.941 9.32783 332.342 11.6264 333.035 15.098C333.728 18.5695 331.428 21.8832 328.191 23.3158C324.772 24.8291 321.656 26.994 319.028 29.7101C316.4 32.4263 314.34 35.6117 312.94 39.0794C311.615 42.3622 308.379 44.77 304.887 44.1923Z" fill="#FC9159"/>
<line x1="0.5" y1="-0.5" x2="154.5" y2="-0.5" transform="matrix(1 -8.74228e-08 -8.74228e-08 -1 405 32)" stroke="#FF4242" stroke-linecap="round"/>
<line x1="0.5" y1="-0.5" x2="154.5" y2="-0.5" transform="matrix(1 -8.74228e-08 -8.74228e-08 -1 414 53)" stroke="#FF4242" stroke-linecap="round"/>
<circle cx="562" cy="32" r="4" fill="#FF4242"/>
<circle cx="570" cy="54" r="4" fill="#FF4242"/>
<path d="M457.424 220.5C458.424 223.5 456.924 229 449.924 234.5C440.924 242.5 421.967 247.911 402.184 247.39C382.401 246.869 369.924 242.5 364.424 240.5C349.924 233.5 346.424 226 346.924 220.5L400.387 137.724C402.622 134.284 407.702 134.418 409.753 137.971L457.424 220.5Z" fill="#8B12A9"/>
<path d="M384.088 229.767C383.387 232.596 381.424 233 377.727 233.502C370.924 233.502 364.424 231.5 360.924 227.5C358.73 224.432 357.511 222.591 358.896 220.026L401.236 141.616C401.771 140.624 403.006 140.268 404.057 140.674C405.108 141.081 405.782 142.175 405.511 143.269L384.088 229.767Z" fill="#A22B99"/>
<line x1="396.5" y1="271.5" x2="396.5" y2="372.5" stroke="#A22B99" stroke-linecap="round"/>
<line x1="415.5" y1="271.5" x2="415.5" y2="372.5" stroke="#A22B99" stroke-linecap="round"/>
<path d="M397 368L400.464 374H393.536L397 368Z" fill="#A22B99"/>
<path d="M415 368L418.464 374H411.536L415 368Z" fill="#A22B99"/>
<rect x="185" y="117" width="100" height="100" rx="31" fill="#FFCACA"/>
<path d="M198 130.001C202.999 125.134 210.489 122.828 218.814 122.072C233.874 120.704 233.921 138.226 219.14 141.418L218.484 141.56C213.038 142.736 208.824 147.056 207.784 152.529C205.125 166.516 188.801 166.751 189.705 152.543C190.282 143.461 192.615 135.244 198 130.001Z" fill="#FFF3E2"/>
<rect y="158" width="8" height="8" rx="2" fill="#FFCACA"/>
<rect y="179" width="8" height="8" rx="2" fill="#FFCACA"/>
<line x1="4.5" y1="182.5" x2="158.5" y2="182.5" stroke="#FFCACA" stroke-linecap="round"/>
<line x1="4.5" y1="161.5" x2="158.5" y2="161.5" stroke="#FFCACA" stroke-linecap="round"/>
</svg>
