<svg width="206" height="268" viewBox="0 0 206 268" fill="none" xmlns="http://www.w3.org/2000/svg">
<path d="M103.047 4.38501C48.5574 4.38501 4.38501 48.5574 4.38501 103.047C4.38501 157.536 48.5574 201.708 103.047 201.708C157.536 201.708 201.708 157.536 201.708 103.047C201.708 48.5574 157.536 4.38501 103.047 4.38501ZM103.047 133.981C85.9624 133.981 72.1128 120.131 72.1128 103.047C72.1128 85.9624 85.9624 72.1128 103.047 72.1128C120.131 72.1128 133.981 85.9624 133.981 103.047C133.981 120.131 120.131 133.981 103.047 133.981Z" fill="#91A2A5"/>
<circle cx="102.714" cy="177.658" r="16.6097" fill="#FF4242"/>
<path d="M91.0502 175.728C89.89 175.536 89.0895 174.432 89.4556 173.315C90.1104 171.316 91.2119 169.481 92.6873 167.956C94.1627 166.431 95.9596 165.27 97.9359 164.549C99.0407 164.147 100.171 164.91 100.401 166.063C100.631 167.217 99.8672 168.317 98.7918 168.793C97.6558 169.296 96.6209 170.015 95.7479 170.917C94.8749 171.82 94.1904 172.878 93.7255 174.03C93.2854 175.12 92.2104 175.92 91.0502 175.728Z" fill="#FC9159"/>
<mask id="path-4-inside-1" fill="white">
<path d="M188.748 53.4932C190.655 52.3924 193.1 53.0424 194.127 54.9902C202.188 70.292 206.277 87.3989 205.985 104.735C205.671 123.401 200.289 141.631 190.415 157.475C180.542 173.319 166.547 186.182 149.929 194.688C133.31 203.194 114.692 207.023 96.0655 205.766C77.4389 204.509 59.5041 198.214 44.1789 187.552C28.8536 176.891 16.7142 162.265 9.05856 145.238C1.40294 128.21 -1.48099 109.423 0.715153 90.8835C2.75477 73.6655 9.10491 57.263 19.1494 43.1829C20.428 41.3907 22.9386 41.0751 24.68 42.4221L80.3342 85.4688C82.0757 86.8157 82.3625 89.3084 81.3133 91.2439C79.83 93.9802 78.8721 96.9834 78.5031 100.098C77.9771 104.538 78.6678 109.038 80.5013 113.116C82.3348 117.194 85.2422 120.697 88.9125 123.25C92.5829 125.803 96.8782 127.311 101.339 127.612C105.8 127.913 110.259 126.996 114.239 124.959C118.219 122.922 121.571 119.841 123.936 116.047C126.3 112.252 127.589 107.886 127.665 103.416C127.717 100.279 127.172 97.1747 126.069 94.2639C125.29 92.205 125.909 89.7736 127.816 88.6728L188.748 53.4932Z"/>
</mask>
<path d="M188.748 53.4932C190.655 52.3924 193.1 53.0424 194.127 54.9902C202.188 70.292 206.277 87.3989 205.985 104.735C205.671 123.401 200.289 141.631 190.415 157.475C180.542 173.319 166.547 186.182 149.929 194.688C133.31 203.194 114.692 207.023 96.0655 205.766C77.4389 204.509 59.5041 198.214 44.1789 187.552C28.8536 176.891 16.7142 162.265 9.05856 145.238C1.40294 128.21 -1.48099 109.423 0.715153 90.8835C2.75477 73.6655 9.10491 57.263 19.1494 43.1829C20.428 41.3907 22.9386 41.0751 24.68 42.4221L80.3342 85.4688C82.0757 86.8157 82.3625 89.3084 81.3133 91.2439C79.83 93.9802 78.8721 96.9834 78.5031 100.098C77.9771 104.538 78.6678 109.038 80.5013 113.116C82.3348 117.194 85.2422 120.697 88.9125 123.25C92.5829 125.803 96.8782 127.311 101.339 127.612C105.8 127.913 110.259 126.996 114.239 124.959C118.219 122.922 121.571 119.841 123.936 116.047C126.3 112.252 127.589 107.886 127.665 103.416C127.717 100.279 127.172 97.1747 126.069 94.2639C125.29 92.205 125.909 89.7736 127.816 88.6728L188.748 53.4932Z" fill="#B6F7FF" fill-opacity="0.67" stroke="#B6F7FF" stroke-width="6" mask="url(#path-4-inside-1)"/>
<circle cx="103" cy="251" r="17" fill="#FF4242"/>
<path d="M91.0615 249.025C89.874 248.829 89.0547 247.699 89.4294 246.555C90.0996 244.509 91.2269 242.632 92.737 241.071C94.2471 239.51 96.0862 238.321 98.109 237.584C99.2398 237.171 100.396 237.953 100.632 239.133C100.867 240.314 100.086 241.44 98.985 241.927C97.8223 242.442 96.763 243.178 95.8696 244.101C94.9761 245.025 94.2755 246.108 93.7996 247.287C93.3492 248.403 92.249 249.222 91.0615 249.025Z" fill="#FC9159"/>
</svg>
