<svg id="Layer_1" data-name="Layer 1" xmlns="http://www.w3.org/2000/svg" viewBox="0 0 319.89 294.78"><defs><style>.cls-1{fill:#222;}.cls-1,.cls-2{stroke:#000;stroke-miterlimit:10;stroke-width:8px;fill-rule:evenodd;}.cls-2{fill:#ff4242;}</style></defs><path class="cls-1" d="M129.38,88.18A68.54,68.54,0,0,0,83.3,113.06L29.11,179.65a68.5,68.5,0,0,0,60,111.42h0a68.37,68.37,0,0,0,46.11-24.88l54.17-66.56a68.56,68.56,0,0,0,15-50.24v0a68.43,68.43,0,0,0-75.05-61.18Zm42.83,68.65h0c-1.31,13.43-7.68,27.89-17.7,40.21l-28.83,35.43C115.65,244.8,102.8,254,89.92,258h0c-13.4,4.17-25,2.27-32.85-4.15S45,236.4,46.33,222.41a67.08,67.08,0,0,1,5.58-20.51A86.38,86.38,0,0,1,64,182.22l28.85-35.46a86.28,86.28,0,0,1,16.82-15.85,67,67,0,0,1,18.92-9.62c13.42-4.17,25-2.28,32.91,4.17S173.58,142.85,172.21,156.83Z" transform="translate(-1.12 -0.65)"/><path class="cls-1" d="M241.59,21.39a68.43,68.43,0,0,0-46.08,24.88l-54.19,66.59a68.49,68.49,0,0,0,60,111.41h0a68.44,68.44,0,0,0,46.12-24.87l54.16-66.57a68.53,68.53,0,0,0,15-50.23v0a68.43,68.43,0,0,0-75.06-61.18ZM284.43,90v0c-1.31,13.43-7.68,27.89-17.71,40.21L237.9,165.68c-10,12.33-22.89,21.5-35.76,25.49h0c-13.4,4.16-25,2.27-32.85-4.15s-12.1-17.42-10.73-31.42a67,67,0,0,1,5.58-20.5,86.48,86.48,0,0,1,12.11-19.69L205.08,80a86.21,86.21,0,0,1,16.81-15.85,66.81,66.81,0,0,1,18.93-9.62c13.41-4.17,25-2.28,32.9,4.16S285.79,76.05,284.43,90Z" transform="translate(-1.12 -0.65)"/><path class="cls-2" d="M120.77,71.81A68.37,68.37,0,0,0,74.69,96.69L20.5,163.28a68.49,68.49,0,0,0,60,111.41h0a68.42,68.42,0,0,0,46.11-24.87l54.17-66.57a68.52,68.52,0,0,0,15-50.23v0a68.43,68.43,0,0,0-75-61.18Zm42.83,68.64v0c-1.31,13.43-7.68,27.89-17.7,40.21L117.07,216.1c-10,12.33-22.88,21.5-35.76,25.49h0c-13.4,4.16-25,2.27-32.86-4.15S36.35,220,37.72,206a67,67,0,0,1,5.58-20.5,86.44,86.44,0,0,1,12.1-19.69l28.85-35.45a86,86,0,0,1,16.82-15.85A66.75,66.75,0,0,1,120,104.92c13.42-4.17,25-2.28,32.91,4.16S165,126.47,163.6,140.45Z" transform="translate(-1.12 -0.65)"/><path class="cls-2" d="M120.77,71.81A68.37,68.37,0,0,0,74.69,96.69L20.5,163.28a68.49,68.49,0,0,0,60,111.41h0a68.42,68.42,0,0,0,46.11-24.87l54.17-66.57a68.52,68.52,0,0,0,15-50.23v0a68.43,68.43,0,0,0-75-61.18Zm42.83,68.64v0c-1.31,13.43-7.68,27.89-17.7,40.21L117.07,216.1c-10,12.33-22.88,21.5-35.76,25.49h0c-13.4,4.16-25,2.27-32.86-4.15S36.35,220,37.72,206a67,67,0,0,1,5.58-20.5,86.44,86.44,0,0,1,12.1-19.69l28.85-35.45a86.21,86.21,0,0,1,16.81-15.85A66.94,66.94,0,0,1,120,104.92c13.42-4.17,25-2.28,32.91,4.16S165,126.47,163.6,140.45Z" transform="translate(-1.12 -0.65)"/><path class="cls-2" d="M308.05,66.23v0A68.43,68.43,0,0,0,186.9,29.89L150.05,75.18l-17.34,21.3a68.59,68.59,0,0,0,6,93l7.17-8.82a88.62,88.62,0,0,0,9.95-15.15c-4.72-6.5-7-15.5-5.92-26.29a67.28,67.28,0,0,1,5.58-20.51c.67-1.52,1.4-3,2.18-4.56a86.72,86.72,0,0,1,9.93-15.12l7.19-8.83,21.66-26.63a86.82,86.82,0,0,1,16.81-15.85,66.9,66.9,0,0,1,18.93-9.61c13.41-4.18,25-2.29,32.9,4.16s12.07,17.39,10.7,31.37h0c-1.31,13.43-7.68,27.89-17.71,40.22l-28.83,35.42c-10,12.32-22.87,21.49-35.75,25.49h0a48.76,48.76,0,0,1-7.91,1.79,67.55,67.55,0,0,1-4.79,6.66l-17.33,21.3a68.15,68.15,0,0,0,29.25,3.35h0A68.32,68.32,0,0,0,238.86,183L293,116.45A68.48,68.48,0,0,0,308.05,66.23Z" transform="translate(-1.12 -0.65)"/></svg>