<svg xmlns="http://www.w3.org/2000/svg" viewBox="0 0 43 42.08"><defs><style>.cls-1{fill:#dcf2f0;fill-rule:evenodd;}</style></defs><g id="Layer_2" data-name="Layer 2"><g id="Layer_1-2" data-name="Layer 1"><path class="cls-1" d="M40.52,10.56a.8.8,0,0,0-1.12-.31l-.06,0a20.6,20.6,0,0,0-35.56-.16l-.08,0a.8.8,0,0,0-1.12.31,21.5,21.5,0,1,0,37.94.18Zm-13.84,7a.94.94,0,0,0-.36,1.17A5.16,5.16,0,0,1,18.9,25,5.22,5.22,0,0,1,17,23.12a5.07,5.07,0,0,1-.67-2.58,5.41,5.41,0,0,1,.35-1.83.94.94,0,0,0-.35-1.17l-6.9-4.07a14,14,0,0,1,24.18.11Zm7.82-4.51A15,15,0,0,0,8.59,13L4.64,10.62a19.61,19.61,0,0,1,33.84.16Z"/></g></g></svg>